<svg width="22" height="19" viewBox="0 0 22 19" fill="none" xmlns="http://www.w3.org/2000/svg">
<path d="M13.0581 1.40989C11.2511 2.17689 10.0631 3.86289 10.0021 5.78989L10.0001 5.97189L9.75708 5.94889C7.36508 5.67989 5.25908 4.43689 3.81308 2.41789C3.71517 2.28105 3.58431 2.17114 3.43262 2.09832C3.28094 2.0255 3.11333 1.99213 2.94532 2.00131C2.77732 2.01048 2.61434 2.0619 2.47148 2.1508C2.32863 2.2397 2.21051 2.36321 2.12808 2.50989L2.03108 2.69589L1.98208 2.79489C1.26308 4.27989 0.79208 6.08489 0.96508 7.99789L0.99508 8.27089C1.27808 10.5339 2.49508 12.4859 4.77408 13.9499L4.94708 14.0569L4.86608 14.0999C3.55108 14.7629 2.34808 15.0519 1.03908 14.9999C-0.01692 14.9599 -0.40692 16.3719 0.52108 16.8779C4.11908 18.8389 7.98208 19.4439 11.3131 18.4779C15.3731 17.2979 18.4651 14.2549 19.6481 10.0449L19.7751 9.54989C20.0131 8.55689 20.1471 7.54389 20.1761 6.52589L20.1791 6.19389L20.5721 5.41489L21.0121 4.55289L21.2261 4.11889L21.3441 3.87189C21.6091 3.30689 21.8001 2.83889 21.9181 2.44189L21.9321 2.38589L21.9401 2.36789C22.1601 1.77489 21.7741 1.00989 20.9991 1.00989L20.8771 1.01689C20.7981 1.0266 20.7205 1.04574 20.6461 1.07389L20.5601 1.11189C20.2747 1.25048 19.9808 1.37072 19.6801 1.47189L19.3241 1.58689L19.0531 1.66689L18.2811 1.88089C16.9451 0.762889 15.1371 0.626888 13.2691 1.32689L13.0581 1.40989Z" fill="white"/>
</svg>
