<svg width="24" height="24" viewBox="0 0 24 24" fill="none" xmlns="http://www.w3.org/2000/svg">
<g clip-path="url(#clip0_394_21)">
<path d="M5.31529 2.09988C6.10629 1.98688 7.21529 2.24488 8.64829 3.06588L8.92029 3.22688L9.08029 3.32688L9.47729 3.24388C10.9911 2.95137 12.5442 2.9243 14.0673 3.16388L14.5233 3.24388L14.9193 3.32688L15.0803 3.22688C16.4653 2.38688 17.5673 2.05688 18.4023 2.07888L18.5663 2.08688L18.7133 2.10388L18.7893 2.11788L18.8393 2.12888L18.9833 2.17588C19.2191 2.27334 19.4087 2.45721 19.5133 2.68988C19.9225 3.60158 20.0603 4.61188 19.9103 5.59988L19.8633 5.86688L19.8173 6.06288L19.9403 6.22588C20.5143 7.02088 20.8703 7.95388 20.9703 8.93288L20.9933 9.22788L21.0003 9.49988C21.0003 13.3549 19.3413 15.3829 16.3563 16.1799L16.1113 16.2409L15.9793 16.2699L15.9933 16.4309L16.0013 16.5879L16.0053 16.9529L16.0033 17.1659L16.0003 20.9999C16.0003 21.2448 15.9103 21.4812 15.7476 21.6643C15.5848 21.8473 15.3605 21.9642 15.1173 21.9929L15.0003 21.9999H9.00029C8.75536 21.9998 8.51896 21.9099 8.33592 21.7472C8.15289 21.5844 8.03595 21.3601 8.00729 21.1169L8.00029 20.9999V20.2659C6.18229 20.5259 4.97029 19.8419 3.89029 18.3879L3.35529 17.6219C3.07529 17.2259 2.90029 17.0429 2.76629 16.9779L2.71829 16.9589C2.47071 16.8784 2.26425 16.7046 2.14281 16.4743C2.02137 16.244 1.99452 15.9755 2.06796 15.7257C2.14141 15.476 2.30936 15.2647 2.53611 15.1368C2.76287 15.0089 3.03056 14.9745 3.28229 15.0409C3.92429 15.2289 4.35629 15.6089 4.85229 16.2799L5.39029 17.0489C6.15029 18.1279 6.75029 18.5079 7.99929 18.2399L8.00029 17.5619L7.98229 17.3939C7.95276 17.1202 7.94574 16.8447 7.96129 16.5699L7.97829 16.3849L7.99729 16.2649L7.88929 16.2409C4.91329 15.5309 3.18629 13.6679 3.01429 10.1019L3.00429 9.79188L3.00029 9.49988C3.00145 8.41646 3.31686 7.35663 3.90829 6.44888L4.06029 6.22688L4.18229 6.06388L4.13729 5.86788C3.95701 4.98944 4.00696 4.07931 4.28229 3.22588L4.38229 2.94388L4.48829 2.69088C4.59269 2.4584 4.78191 2.27455 5.01729 2.17688L5.16129 2.12988L5.31529 2.09988Z" fill="white"/>
</g>
<defs>
<clipPath id="clip0_394_21">
<rect width="24" height="24" fill="white"/>
</clipPath>
</defs>
</svg>
