<svg width="110" height="115" viewBox="0 0 110 115" fill="none" xmlns="http://www.w3.org/2000/svg">
<rect width="110" height="115" rx="20" fill="#E5030B"/>
<path d="M18.0455 81V34.4545H36.6818C40.1061 34.4545 42.9621 34.9621 45.25 35.9773C47.5379 36.9924 49.2576 38.4015 50.4091 40.2045C51.5606 41.9924 52.1364 44.053 52.1364 46.3864C52.1364 48.2045 51.7727 49.803 51.0455 51.1818C50.3182 52.5455 49.3182 53.6667 48.0455 54.5455C46.7879 55.4091 45.3485 56.0227 43.7273 56.3864V56.8409C45.5 56.9167 47.1591 57.4167 48.7045 58.3409C50.2652 59.2652 51.5303 60.5606 52.5 62.2273C53.4697 63.8788 53.9545 65.8485 53.9545 68.1364C53.9545 70.6061 53.3409 72.8106 52.1136 74.75C50.9015 76.6742 49.1061 78.197 46.7273 79.3182C44.3485 80.4394 41.4167 81 37.9318 81H18.0455ZM27.8864 72.9545H35.9091C38.6515 72.9545 40.6515 72.4318 41.9091 71.3864C43.1667 70.3258 43.7955 68.9167 43.7955 67.1591C43.7955 65.8712 43.4848 64.7348 42.8636 63.75C42.2424 62.7652 41.3561 61.9924 40.2045 61.4318C39.0682 60.8712 37.7121 60.5909 36.1364 60.5909H27.8864V72.9545ZM27.8864 53.9318H35.1818C36.5303 53.9318 37.7273 53.697 38.7727 53.2273C39.8333 52.7424 40.6667 52.0606 41.2727 51.1818C41.8939 50.303 42.2045 49.25 42.2045 48.0227C42.2045 46.3409 41.6061 44.9848 40.4091 43.9545C39.2273 42.9242 37.5455 42.4091 35.3636 42.4091H27.8864V53.9318ZM82.408 47.8409C82.2261 46.0076 81.4458 44.5833 80.067 43.5682C78.6883 42.553 76.817 42.0455 74.4534 42.0455C72.8473 42.0455 71.4913 42.2727 70.3852 42.7273C69.2792 43.1667 68.4307 43.7803 67.8398 44.5682C67.264 45.3561 66.9761 46.25 66.9761 47.25C66.9458 48.0833 67.1201 48.8106 67.4989 49.4318C67.8928 50.053 68.4307 50.5909 69.1125 51.0455C69.7943 51.4848 70.5822 51.8712 71.4761 52.2045C72.3701 52.5227 73.3246 52.7955 74.3398 53.0227L78.5216 54.0227C80.5519 54.4773 82.4155 55.0833 84.1125 55.8409C85.8095 56.5985 87.2792 57.5303 88.5216 58.6364C89.764 59.7424 90.7261 61.0455 91.408 62.5455C92.1049 64.0455 92.461 65.7652 92.4761 67.7045C92.461 70.553 91.7337 73.0227 90.2943 75.1136C88.8701 77.1894 86.8095 78.803 84.1125 79.9545C81.4307 81.0909 78.1958 81.6591 74.408 81.6591C70.6504 81.6591 67.3777 81.0833 64.5898 79.9318C61.817 78.7803 59.6504 77.0758 58.0898 74.8182C56.5443 72.5455 55.7337 69.7348 55.658 66.3864H65.1807C65.2867 67.947 65.7337 69.25 66.5216 70.2955C67.3246 71.3258 68.3928 72.1061 69.7261 72.6364C71.0746 73.1515 72.5973 73.4091 74.2943 73.4091C75.961 73.4091 77.408 73.1667 78.6352 72.6818C79.8777 72.197 80.8398 71.5227 81.5216 70.6591C82.2034 69.7955 82.5443 68.803 82.5443 67.6818C82.5443 66.6364 82.2337 65.7576 81.6125 65.0455C81.0064 64.3333 80.1125 63.7273 78.9307 63.2273C77.764 62.7273 76.3322 62.2727 74.6352 61.8636L69.567 60.5909C65.6428 59.6364 62.5443 58.1439 60.2716 56.1136C57.9989 54.0833 56.8701 51.3485 56.8852 47.9091C56.8701 45.0909 57.6201 42.6288 59.1352 40.5227C60.6655 38.4167 62.764 36.7727 65.4307 35.5909C68.0973 34.4091 71.1277 33.8182 74.5216 33.8182C77.9761 33.8182 80.9913 34.4091 83.567 35.5909C86.158 36.7727 88.1731 38.4167 89.6125 40.5227C91.0519 42.6288 91.7943 45.0682 91.8398 47.8409H82.408Z" fill="white"/>
</svg>
