<svg width="239" height="220" viewBox="0 0 239 220" fill="none" xmlns="http://www.w3.org/2000/svg">
<path d="M114.666 16.0001C114.666 23.6001 114.799 24.0001 117.999 24.1334C119.866 24.2667 122.133 24.4001 122.933 24.5334C123.866 24.6667 124.799 23.6001 125.066 22.2667C125.333 20.6667 124.666 20.0001 122.799 20.0001C120.399 20.0001 119.999 19.2001 119.999 14.0001C119.999 8.9334 119.599 8.00007 117.333 8.00007C114.933 8.00007 114.666 8.9334 114.666 16.0001Z" fill="black"/>
<path d="M94.6655 10.5333C92.7988 11.0666 91.3321 12.1333 91.4655 13.0666C91.5988 13.9999 91.7321 17.7333 91.8655 21.4666L91.9988 28.2666L96.3988 27.3333C103.999 25.7333 105.332 25.1999 105.332 23.1999C105.332 21.5999 104.399 21.3333 101.332 21.9999C98.7988 22.5333 97.3321 22.3999 97.3321 21.4666C97.3321 20.6666 98.5321 19.9999 99.9988 19.9999C101.732 19.9999 102.665 19.0666 102.665 17.4666C102.665 15.5999 101.999 15.0666 99.9988 15.5999C98.5321 15.9999 97.3321 15.5999 97.3321 14.7999C97.3321 13.9999 98.7988 13.3333 100.665 13.3333C102.799 13.3333 103.999 12.5333 103.999 11.3333C103.999 9.19993 100.532 8.93327 94.6655 10.5333Z" fill="black"/>
<path d="M61.3327 27.0668C38.5327 45.0668 25.7327 73.2001 31.3327 93.3335C32.3993 97.3335 33.466 104.267 33.5993 108.667C34.1327 120.8 35.866 122.8 57.066 136C67.466 142.667 70.5327 148 68.1327 155.867C65.9994 163.067 57.466 170.267 49.9994 171.467C36.666 173.467 25.3327 164.267 25.3327 151.6C25.3327 146.267 29.466 140.4 33.7327 139.733C39.466 138.933 37.466 130.667 31.466 130.667C23.7327 130.667 14.7993 141.6 14.666 151.333C14.666 162.667 23.3327 175.333 33.9993 179.467C57.3327 188.267 85.3327 166.4 79.5994 143.733C77.866 136.667 72.266 131.2 58.9327 123.6C52.9327 120.133 47.466 116.133 46.666 114.8C45.466 112.4 45.7327 112.267 52.3994 112.8C57.866 113.333 60.266 112.933 63.7327 110.8C68.666 107.6 70.9327 103.067 69.066 99.6001C67.3327 96.1335 63.9994 96.8001 59.9994 101.467C56.7994 105.333 55.9994 105.6 51.466 104.8C44.666 103.467 37.466 96.6668 35.9994 90.2668C33.7327 80.0001 37.7327 64.2668 45.9994 51.3335C50.9327 43.4668 64.1327 30.0001 69.5994 27.2001C73.7327 25.0668 74.666 21.3335 71.066 21.3335C69.7327 21.3335 65.3327 23.8668 61.3327 27.0668Z" fill="black"/>
<path d="M142.666 26.9335C137.866 30.1335 135.999 33.3335 138.799 33.3335C139.733 33.3335 141.466 32.4002 142.799 31.2002C147.599 26.9335 154.799 26.5335 166.399 30.0002C170.799 31.4668 170.133 28.4002 165.333 26.0002C159.333 22.9335 147.999 23.3335 142.666 26.9335Z" fill="black"/>
<path d="M68.9332 36.4001C65.7332 37.3334 63.7332 38.8001 63.1998 40.5334C62.9332 42.1334 62.7998 51.4668 62.9332 61.3334C63.3332 79.0668 63.3332 79.3335 66.2665 78.9335C67.8665 78.6668 72.9332 79.2001 77.3332 80.0001C84.6665 81.3335 85.8665 81.2001 88.1332 79.2001C92.5332 75.3334 93.8665 68.0001 91.4665 62.2668C90.3998 59.6001 88.5332 57.3334 87.4665 57.3334C84.7998 57.3334 84.7998 56.1334 87.4665 53.2001C88.6665 51.8668 89.5998 48.6668 89.7332 45.8668C89.8665 42.1334 89.0665 40.2668 86.1332 37.8668C82.2665 34.4001 77.4665 34.0001 68.9332 36.4001ZM79.1998 43.4668C82.1332 46.2668 81.8665 50.1334 78.6665 53.3334C73.9998 58.0001 71.9998 56.8001 71.9998 49.4668C71.9998 44.2668 72.5332 42.6668 74.3998 42.2668C75.5998 41.8668 76.7998 41.6001 76.9332 41.4668C77.0665 41.4668 78.1332 42.2668 79.1998 43.4668ZM83.7332 67.0668C84.2665 73.6001 82.1332 76.2668 76.7998 75.7335C72.9332 75.3335 72.6665 74.9335 72.2665 69.0668C71.8665 62.4001 72.9332 61.3334 79.9998 61.7334C82.7998 62.0001 83.3332 62.6668 83.7332 67.0668Z" fill="black"/>
<path d="M98.4 37.4668C96.2667 38.6668 96 41.0668 96 56.8002C96 66.6668 96.6667 76.0002 97.3333 77.4668C99.0667 80.5335 105.6 80.9335 108 78.0002C109.067 76.8002 110.933 76.4002 113.467 76.9335C116.4 77.4668 117.467 77.0668 118.267 75.2002C118.8 73.8668 118.533 72.6668 117.6 72.2668C116.533 72.0002 116 67.8668 116 59.8668C116 53.3335 115.467 48.0002 114.8 48.0002C110.133 48.0002 109.333 49.7335 109.333 59.6002C109.333 69.2002 107.867 74.6668 105.333 74.6668C104.533 74.6668 104 66.8002 104 55.3335C104 35.2002 103.733 34.2668 98.4 37.4668Z" fill="black"/>
<path d="M160.666 37.3333C159.199 38 156.399 38.8 154.399 39.2L150.666 40V54C150.666 66.9333 150.799 68 153.199 68C156.933 68 157.866 65.8667 157.466 57.4667C157.066 48.8 159.066 42.6667 161.999 42.6667C163.599 42.6667 163.999 44.8 163.999 54.1333C163.999 65.4667 163.999 65.6 167.066 64.8C168.666 64.4 170.266 64 170.666 64C171.066 64 171.066 58.2667 170.666 51.3333C169.866 36.4 168.266 34.1333 160.666 37.3333Z" fill="black"/>
<path d="M184.399 42.6667C178.265 46.4 175.465 52.5333 175.332 62V70L161.999 76.6667C154.665 80.4 143.465 85.2 137.065 87.3333C128.265 90.2667 125.332 91.8667 125.332 93.6C125.332 94.9333 125.865 96 126.532 96C129.999 96 152.932 86.8 165.732 80.4L180.132 73.2L184.132 76.6667C189.332 80.9333 198.665 81.2 205.065 77.3333C217.865 69.4667 217.865 50.5333 205.065 42.6667C199.332 39.2 189.999 39.2 184.399 42.6667ZM202.799 51.8667C207.199 56.2667 207.599 59.6 204.665 65.3333C200.799 72.9333 193.865 74 187.865 68.1333C182.799 62.9333 182.532 56.4 187.465 51.4667C192.265 46.8 197.732 46.9333 202.799 51.8667Z" fill="black"/>
<path d="M191.733 58.4C187.866 60.8 187.333 62.1333 189.2 65.2C191.733 69.2 203.6 62.5333 201.866 58C200.8 55.4666 196.4 55.6 191.733 58.4Z" fill="black"/>
<path d="M126.666 46.5333C122.933 50.1333 122.666 51.2 122.666 60.2667C122.666 66.1334 123.333 70.8 124.266 71.7334C127.999 75.4667 139.199 72.8 144.533 66.9334C148.666 62.1334 145.733 60.8 139.333 64.6667C133.066 68.2667 128.799 69.0667 129.599 66.4C129.999 65.4667 132.799 63.2 136.133 61.3333C143.733 56.8 146.533 51.6 143.866 46.8C142.266 44 140.666 43.2 136.266 42.9333C131.466 42.5333 129.999 43.0667 126.666 46.5333ZM138.266 50.2667C138.799 51.7333 132.266 58.6667 130.399 58.6667C129.733 58.6667 129.333 57.2 129.333 55.4667C129.333 50.2667 136.933 46 138.266 50.2667Z" fill="black"/>
<path d="M45.332 62.6667C45.332 63.3333 47.1987 64 49.332 64C51.5987 64 53.332 63.3333 53.332 62.6667C53.332 61.8667 51.5987 61.3333 49.332 61.3333C47.1987 61.3333 45.332 61.8667 45.332 62.6667Z" fill="black"/>
<path d="M44 68C44 69.7334 48 69.7334 50.6667 68C52.1333 67.0667 51.6 66.6667 48.4 66.6667C46 66.6667 44 67.2 44 68Z" fill="black"/>
<path d="M45.0659 71.6001C41.0659 72.6668 42.3992 74.2668 46.6659 73.6001C48.9326 73.3334 50.6659 72.5334 50.6659 71.8668C50.6659 70.6668 48.9326 70.5334 45.0659 71.6001Z" fill="black"/>
<path d="M43.0654 76.9335C42.132 77.2001 41.332 78.1335 41.332 78.9335C41.332 80.5335 47.9987 79.2001 49.9987 77.2001C51.332 75.8668 45.9987 75.6001 43.0654 76.9335Z" fill="black"/>
<path d="M55.3319 83.8666C50.1319 85.2 43.5986 88.6666 41.4653 91.2C39.9986 92.9333 40.3986 93.8666 43.1986 96.6666L46.6653 100.133L52.7986 95.7333C58.7986 91.4666 59.3319 91.3333 71.8653 91.3333C83.1986 91.3333 85.9986 91.8666 95.8653 95.7333C107.065 100.133 109.199 100 109.332 95.2C109.332 93.2 96.2653 87.4666 85.8653 84.8C77.3319 82.6666 62.3986 82.1333 55.3319 83.8666Z" fill="black"/>
<path d="M114.399 85.6001C112.265 87.0667 111.999 90.5334 111.732 113.333C111.332 135.467 111.065 139.333 109.332 139.333C107.732 139.333 107.199 136.533 106.932 124.267C106.665 111.2 106.265 109.2 104.532 109.867C103.332 110.267 100.399 110.667 97.9985 110.667C89.8652 110.667 80.9318 120.933 83.9985 126.8C86.6652 131.733 94.6652 128 94.6652 121.733C94.6652 118.667 100.665 115.2 102.132 117.467C103.999 120.533 100.932 125.2 93.8652 130.133C89.7318 132.933 85.8652 136.267 85.1985 137.6C82.1318 143.2 85.1985 150.667 90.5318 150.667C91.8652 150.667 95.0652 149.2 97.7318 147.467C101.199 145.067 102.799 144.667 103.865 145.733C105.065 146.933 106.132 146.8 107.999 145.6C109.465 144.8 111.732 144 113.065 144C114.399 144 116.665 143.2 117.999 142.133C119.332 141.2 121.599 140.667 122.932 141.067C126.665 142 132.532 138.933 135.065 134.8C136.665 132 137.332 127.867 137.332 120.133C137.332 110.267 137.065 108.933 133.999 105.867C131.332 103.2 129.865 102.667 126.399 103.333L121.999 104.133V94.4001C121.999 85.7334 121.732 84.6667 119.332 84.2667C117.865 84.1334 115.599 84.6667 114.399 85.6001ZM129.065 119.6C129.465 128.933 127.865 133.333 123.999 133.333C121.599 133.333 121.332 132.4 121.332 123.6C121.332 113.6 122.799 110.267 126.665 110.933C128.132 111.2 128.799 113.467 129.065 119.6ZM101.732 135.733C100.532 139.067 95.8652 144 93.7318 144C90.5318 144 91.8652 138.933 96.1318 135.467C100.532 131.733 103.065 131.867 101.732 135.733Z" fill="black"/>
<path d="M213.332 88.4C213.332 89.4666 214.399 92.2666 215.599 94.8C219.332 102.133 218.799 115.067 214.399 124C212.265 128.133 211.199 131.733 211.865 132.4C215.732 136.267 221.599 123.6 222.399 110C222.932 100.933 222.532 98.2666 219.999 92.9333C217.199 87.0666 213.332 84.4 213.332 88.4Z" fill="black"/>
<path d="M187.333 89.3333C185.2 90.1333 182.533 90.4 181.733 90C179.733 89.3333 171.2 92.6666 170 94.6666C169.6 95.3333 170.4 96.9333 171.733 98.1333C174.266 100.267 174.533 106.533 172.666 122.267C172 128.533 172.266 128.667 178.533 126.533L182.666 125.067V112.133C182.666 102.8 183.2 98.4 184.666 96.5333C186.4 94.4 186.8 94.2666 188 96C189.066 97.6 189.466 97.7333 190.533 96.1333C192.533 93.0666 196.8 95.7333 199.066 101.333C201.066 106.533 202.933 107.467 207.2 105.867C209.6 104.933 210 99.7333 208 96.1333C204.933 90.4 194.8 87.0666 187.333 89.3333Z" fill="black"/>
<path d="M17.3318 98.5333C15.8651 101.333 15.4651 114.533 16.7985 117.867C17.1985 119.067 18.2651 120 19.1985 120C20.1318 120 20.6651 116 20.7985 108C20.9318 96.1333 19.9985 93.6 17.3318 98.5333Z" fill="black"/>
<path d="M149.065 98.1335C143.332 101.2 141.332 106.533 141.332 118.667C141.332 127.733 141.732 129.733 144.132 132.133C148.265 136.267 156.665 134.933 161.732 129.333C165.065 125.6 165.332 124.533 165.332 113.333C165.332 103.067 164.932 100.933 162.665 98.6668C159.599 95.6002 154.132 95.3335 149.065 98.1335ZM158.399 114C158.799 123.867 157.332 126.667 151.732 126.667C149.599 126.667 149.332 125.467 149.332 116.933C149.332 106.533 150.665 103.6 155.332 104.267C157.599 104.667 157.999 105.867 158.399 114Z" fill="black"/>
<path d="M198.666 116C198.666 116.667 201.333 117.333 204.666 117.333C207.999 117.333 210.666 116.667 210.666 116C210.666 115.2 207.999 114.667 204.666 114.667C201.333 114.667 198.666 115.2 198.666 116Z" fill="black"/>
<path d="M199.333 121.333C199.733 122 201.333 122.667 202.8 122.667C204.266 122.667 205.066 122 204.666 121.333C204.266 120.533 202.666 120 201.2 120C199.733 120 198.933 120.533 199.333 121.333Z" fill="black"/>
<path d="M199.2 126C202 128.133 203.466 127.733 202 125.467C201.6 124.667 200.133 124 198.933 124C196.933 124.133 196.933 124.267 199.2 126Z" fill="black"/>
<path d="M196 128C196 129.6 199.733 131.333 200.8 130.267C201.2 129.867 200.267 128.933 198.8 128C196.8 127.067 196 127.067 196 128Z" fill="black"/>
<path d="M194.133 132.533C194.533 133.733 195.6 134.667 196.267 134.667C198 134.667 196.933 131.6 194.933 130.933C194 130.667 193.6 131.2 194.133 132.533Z" fill="black"/>
<path d="M186.266 143.067C182.266 146.267 178 146.533 161.866 144.667C147.333 143.067 137.733 147.2 128.533 159.067C124.266 164.533 118.266 179.467 119.466 181.467C119.733 182 121.333 182 123.066 181.733C125.466 181.2 127.066 179.2 129.333 173.6C133.333 164 141.199 155.467 148.666 152.533C154.533 150.4 159.333 150.4 176 152.667C184.133 153.733 193.999 149.067 193.999 144C193.999 139.733 191.066 139.333 186.266 143.067Z" fill="black"/>
<path d="M30.6666 152C29.5999 152.667 29.1999 153.6 29.7333 154.133C30.2666 154.667 31.7333 154.133 32.9333 152.933C35.3333 150.533 33.9999 149.867 30.6666 152Z" fill="black"/>
<path d="M33.9986 156C32.6653 157.467 32.2653 158.667 32.9319 158.667C34.6653 158.667 37.9986 154.8 37.0653 154C36.6653 153.6 35.3319 154.533 33.9986 156Z" fill="black"/>
<path d="M37.3323 159.333C34.6656 162.533 36.5323 163.067 39.3323 160C40.6656 158.533 41.0656 157.333 40.399 157.333C39.599 157.333 38.2656 158.267 37.3323 159.333Z" fill="black"/>
<path d="M42.2665 160.4C40.7998 164.267 41.0665 166.133 42.7998 164.4C43.5998 163.6 43.9998 161.867 43.7331 160.533C43.3331 158.133 43.1998 158.133 42.2665 160.4Z" fill="black"/>
<path d="M48.1324 162.533C47.9991 165.733 48.3991 166.8 49.3324 165.867C50.2658 164.933 50.2658 163.333 49.4658 161.2C48.2658 158.133 48.1324 158.267 48.1324 162.533Z" fill="black"/>
<path d="M99.1997 160.133C95.0664 161.333 89.5997 166.133 90.933 167.333C91.333 167.733 94.3997 166.8 97.9997 165.2C103.066 162.933 105.733 162.533 111.6 163.333C117.333 164 118.8 163.867 118.4 162.533C117.333 159.2 106.933 157.867 99.1997 160.133Z" fill="black"/>
<path d="M155.199 166C149.599 171.733 149.199 172 141.466 172C134.933 172 133.199 172.533 131.999 174.533C131.333 176 130.666 177.6 130.666 178.133C130.666 178.533 135.066 178.533 140.399 178.133C149.866 177.2 150.266 177.333 155.199 181.333C158.133 183.6 161.733 185.733 163.333 186.133C166.266 186.933 199.333 184.533 206.666 183.2C215.599 181.333 209.733 180 192.666 180C181.599 180 174.666 179.467 174.666 178.667C174.666 177.867 179.466 177.333 186.533 177.333C192.933 177.333 201.066 176.933 204.533 176.533C216.266 174.8 210.533 173.333 192.666 173.333C181.599 173.333 174.666 172.8 174.666 172C174.666 171.2 180.799 170.667 190.533 170.667C199.333 170.667 207.333 170.267 208.533 169.867C214.133 167.733 209.066 166.667 192.666 166.667C181.599 166.667 174.666 166.133 174.666 165.333C174.666 164.533 181.599 164 192.666 164C202.533 164 210.666 163.467 210.666 162.8C210.666 160.667 204.799 160 182.933 160H161.066L155.199 166Z" fill="black"/>
<path d="M77.066 173.467C75.7327 174.133 74.666 176.133 74.666 177.867C74.666 183.733 77.3327 184.4 96.666 183.733C106.533 183.467 114.933 182.933 115.199 182.533C115.466 182.267 116.133 179.733 116.666 176.933L117.599 172H98.5327C87.9993 172 78.266 172.667 77.066 173.467ZM82.3993 178.4C82.666 179.333 81.9993 180 80.7993 180C79.5993 180 78.666 179.067 78.666 177.867C78.666 175.6 81.5993 176 82.3993 178.4Z" fill="black"/>
<path d="M73.0652 196.133C70.1319 197.867 69.9986 203.067 72.7986 206C74.5319 207.733 78.1319 208 96.3986 207.733L117.999 207.333V201.333V195.333L96.6652 195.067C83.8652 194.8 74.3986 195.2 73.0652 196.133ZM79.9986 201.467C79.9986 202.133 79.0652 202.667 77.9986 202.667C75.9986 202.667 75.3319 201.067 76.7986 199.6C77.8652 198.533 79.9986 199.733 79.9986 201.467ZM105.332 201.467C105.332 202.133 104.399 202.667 103.332 202.667C101.332 202.667 100.665 201.067 102.132 199.6C103.199 198.533 105.332 199.733 105.332 201.467Z" fill="black"/>
<path d="M121.332 201.333C121.332 207.6 121.599 208 124.665 208C127.732 208 127.999 207.6 127.999 201.333C127.999 195.067 127.732 194.667 124.665 194.667C121.599 194.667 121.332 195.067 121.332 201.333Z" fill="black"/>
<path d="M130.933 198.933L131.333 203.333H152.667C170.933 203.333 174.667 202.933 177.733 200.933C179.733 199.6 181.333 199.2 181.333 200C181.333 203.733 172 205.333 151.333 205.333C138.4 205.333 130.667 205.867 130.667 206.667C130.667 208.933 174 208.4 178.667 206C182.4 204 188 198 188 195.867C188 195.2 175.067 194.667 159.2 194.667H130.533L130.933 198.933Z" fill="black"/>
</svg>
